<svg id="Capa_1" enable-background="new 0 0 512 512" height="512" viewBox="0 0 512 512" width="512" xmlns="http://www.w3.org/2000/svg"><g><path d="m427.343 134.877 19.681-19.681 10.695 10.695c2.929 2.929 6.768 4.394 10.606 4.394s7.678-1.464 10.606-4.394c5.858-5.858 5.858-15.355 0-21.213l-42.604-42.603c-5.857-5.858-15.355-5.858-21.213 0s-5.858 15.355 0 21.213l10.695 10.695-19.681 19.681c-37.722-33.136-84.684-52.589-134.789-55.831v-27.833h45.25c8.284 0 15-6.716 15-15s-6.716-15-15-15h-120.5c-8.284 0-15 6.716-15 15s6.716 15 15 15h45.25v27.833c-50.448 3.265-97.71 22.964-135.563 56.516l-19.936-19.938 10.695-10.695c5.858-5.858 5.858-15.355 0-21.213-5.857-5.858-15.355-5.858-21.213 0l-42.604 42.604c-5.858 5.858-5.858 15.355 0 21.213 2.929 2.929 6.768 4.394 10.606 4.394s7.678-1.464 10.606-4.394l10.695-10.695 20.028 20.028c-35.993 41.345-55.647 93.668-55.647 149.015 0 60.723 23.647 117.812 66.584 160.749s100.028 66.583 160.751 66.583 117.812-23.647 160.749-66.584 66.584-100.026 66.584-160.749c.001-55.695-19.906-108.324-56.331-149.79zm-171.002 347.123c-108.81 0-197.333-88.523-197.333-197.333s88.523-197.333 197.333-197.333 197.333 88.523 197.333 197.333c.001 108.81-88.523 197.333-197.333 197.333z"/><path d="m256.341 120.5c-90.521 0-164.167 73.645-164.167 164.167s73.645 164.167 164.167 164.167 164.167-73.645 164.167-164.167-73.645-164.167-164.167-164.167zm0 298.333c-73.979 0-134.167-60.187-134.167-134.167 0-73.979 60.187-134.167 134.167-134.167s134.167 60.187 134.167 134.167-60.187 134.167-134.167 134.167z"/><path d="m271.341 243.573v-47.823c0-8.284-6.716-15-15-15s-15 6.716-15 15v47.823c-17.529 6.198-30.125 22.927-30.125 42.552 0 24.882 20.243 45.125 45.125 45.125s45.125-20.243 45.125-45.125c0-19.624-12.596-36.354-30.125-42.552zm-15 57.677c-8.34 0-15.125-6.785-15.125-15.125s6.785-15.125 15.125-15.125 15.125 6.785 15.125 15.125-6.785 15.125-15.125 15.125z"/></g></svg>